<?xml version="1.0" encoding="UTF-8" standalone="no"?>
<svg
   xmlns:dc="http://purl.org/dc/elements/1.1/"
   xmlns:cc="http://creativecommons.org/ns#"
   xmlns:rdf="http://www.w3.org/1999/02/22-rdf-syntax-ns#"
   xmlns:svg="http://www.w3.org/2000/svg"
   xmlns="http://www.w3.org/2000/svg"
   xmlns:sodipodi="http://sodipodi.sourceforge.net/DTD/sodipodi-0.dtd"
   xmlns:inkscape="http://www.inkscape.org/namespaces/inkscape"
   version="1.0"
   width="423.85001pt"
   height="423.77499pt"
   viewBox="0 0 423.85001 423.77499"
   preserveAspectRatio="xMidYMid meet"
   id="svg16"
   sodipodi:docname="btenca_icon.svg"
   inkscape:version="0.92.4 (f8dce91, 2019-08-02)">
  <defs
     id="defs20" />
  <sodipodi:namedview
     pagecolor="#ffffff"
     bordercolor="#666666"
     borderopacity="1"
     objecttolerance="10"
     gridtolerance="10"
     guidetolerance="10"
     inkscape:pageopacity="0"
     inkscape:pageshadow="2"
     inkscape:window-width="1920"
     inkscape:window-height="1016"
     id="namedview18"
     showgrid="false"
     inkscape:lockguides="false"
     showguides="false"
     inkscape:zoom="1.18"
     inkscape:cx="308.82074"
     inkscape:cy="264.09525"
     inkscape:window-x="0"
     inkscape:window-y="27"
     inkscape:window-maximized="1"
     inkscape:current-layer="svg16">
    <inkscape:grid
       type="xygrid"
       id="grid4562" />
  </sodipodi:namedview>
  <metadata
     id="metadata2">
Created by potrace 1.15, written by Peter Selinger 2001-2017
<rdf:RDF>
  <cc:Work
     rdf:about="">
    <dc:format>image/svg+xml</dc:format>
    <dc:type
       rdf:resource="http://purl.org/dc/dcmitype/StillImage" />
  </cc:Work>
</rdf:RDF>
</metadata>
  <g
     id="g4578"
     transform="matrix(0.80285713,0,0,0.80285713,32.945635,24.568681)">
    <circle
       r="262.5"
       cy="232.88635"
       cx="223.27805"
       id="path4541"
       style="fill:#ffffff;fill-opacity:1;stroke-width:0.52500105" />
    <g
       transform="translate(11.353043,20.980286)"
       id="g4569">
      <path
         inkscape:connector-curvature="0"
         style="fill:#44475a;fill-opacity:1;stroke:none;stroke-width:0.1"
         id="path4"
         d="m 182.925,-37.05 c -54.7,6.2 -108.4,32.3 -148,71.900007 -40.1,40 -65.9,93.600003 -71.9,149.200003 -1.4,12.5 -1.4,43.1 0,55.6 6,55.6 31.8,109.2 71.9,149.2 40,40.1 93.6,65.9 149.2,71.9 12.5,1.4 43.1,1.4 55.6,0 55.6,-6 109.2,-31.8 149.2,-71.9 40.1,-40 65.9,-93.6 71.9,-149.2 1.4,-12.5 1.4,-43.1 0,-55.6 -6,-55.6 -31.8,-109.200003 -71.9,-149.200003 C 348.925,-5.25 295.325,-31.05 239.725,-37.05 c -11.2,-1.3 -45.8,-1.2 -56.8,0 z m 66.5,22.4 c 48.2,8.2 91.4,30.400007 125.5,64.500007 40.1,40 64.2,93.900003 66.9,149.000003 2,42.7 -5.3,78.7 -23.5,115.6 -36.4,73.8 -111.3,123.4 -192.4,127.3 -42.7,2 -78.7,-5.3 -115.6,-23.5 -73.8,-36.4 -123.4,-111.3 -127.3,-192.4 -2,-42.7 5.3,-78.7 23.5,-115.6 36.4,-73.800003 111.3,-123.40001 192.4,-127.30001 16.9,-0.8 37.5,0.2 50.5,2.4 z" />
      <path
         inkscape:connector-curvature="0"
         style="fill:#44475a;fill-opacity:1;stroke:none;stroke-width:0.1"
         id="path6"
         d="m 182.325,1.35 c -61.5,9.000007 -114.8,43.300007 -149.4,96.000007 -15.3,23.500003 -27.3,55.900003 -31.5,85.700003 -1.9,13.5 -1.9,44.1 0,57.6 8.8,62 43,115.4 96,150.2 23.5,15.3 55.9,27.3 85.7,31.5 13.5,1.9 44.1,1.9 57.6,0 62,-8.8 115.4,-43 150.2,-96 15.3,-23.5 27.3,-55.9 31.5,-85.7 1.9,-13.5 1.9,-44.1 0,-57.6 -8.8,-62 -43,-115.400003 -96,-150.200003 -23.5,-15.3 -55.9,-27.300004 -85.7,-31.500007 -12.8,-1.8 -45.8,-1.8 -58.4,0 z m 27.3,52.100007 c 18.4,3.8 32.9,11.2 45.5,23.2 17.2,16.5 26.2,36.500003 27.5,61.200003 0.7,13.4 -0.4,21.4 -4.8,34.3 -1.6,4.9 -2.9,9.2 -2.9,9.6 0,0.5 2.6,3.7 5.7,7.2 12.1,13.6 21,31.4 25,49.9 2.1,10.1 2.4,32.3 0.4,41.5 -8.1,39.2 -34.1,69.7 -70.6,82.8 -20.2,7.2 -44.9,8.2 -64.7,2.5 l -3.8,-1.1 v -18.8 -18.7 l -5.7,-3.2 c -7.8,-4.4 -20,-16.9 -25.1,-25.7 l -4.2,-7.1 v -108.9 l 0.1,-108.800003 6.1,-4.8 c 9.7,-7.6 19.6,-12.1 33.9,-15.2 8.9,-1.9 28.2,-1.9 37.6,0.1 z" />
      <path
         inkscape:connector-curvature="0"
         style="fill:#44475a;fill-opacity:1;stroke:none;stroke-width:0.1"
         id="path8"
         d="m 183.925,64.450007 c -1.4,0.2 -5.2,0.9 -8.5,1.5 -7,1.2 -17.5,5.5 -25.1,10.1 l -5.4,3.2 V 183.65001 c 0,115.9 -0.6,105.6 6.9,115.5 3.2,4.3 12.8,12.7 14.4,12.7 0.4,0 0.8,-49.6 0.9,-110.2 l 0.3,-110.200003 7,-2.5 c 5.6,-2 9,-2.5 17,-2.5 12.8,-0.1 21.4,2.5 31.9,9.5 16,10.700003 24.6,26.500003 24.6,45.400003 0,16.6 -5.3,29 -17.5,41.1 l -8.2,8.2 7.1,3.1 c 17.8,7.8 32.5,24 39.2,43.1 9.5,27.2 2.8,55 -18,75.5 -9.3,9.1 -16.3,13.6 -27.9,17.8 -7.6,2.8 -9.3,3 -22.2,3.1 -7.7,0.1 -15.5,-0.2 -17.2,-0.6 l -3.3,-0.8 v 11.5 11.4 l 4.8,0.7 c 7.9,1.3 25.2,0.7 33.7,-1.1 34.5,-7.3 62.3,-32.8 71.9,-65.8 6.8,-23.6 4.9,-49 -5.4,-70.4 -4.9,-10 -14.3,-22.7 -21.5,-28.9 l -5.3,-4.6 3.3,-6.7 c 8.1,-16.4 10.5,-33.7 6.9,-50.8 -3.5,-16.9 -10,-29.000003 -21.8,-40.800003 -13.9,-13.8 -30.6,-21.1 -50.5,-21.9 -5.3,-0.3 -10.7,-0.3 -12.1,0 z" />
      <path
         inkscape:connector-curvature="0"
         style="fill:#44475a;fill-opacity:1;stroke:none;stroke-width:0.1"
         id="path10"
         d="m 182.225,99.550007 -2.3,0.4 v 41.900003 c 0,47.5 -1,42.7 9.5,43.7 6.7,0.6 15.9,-1.3 22.7,-4.8 6.3,-3.2 16,-13.4 19.4,-20.4 2.7,-5.6 2.9,-6.8 2.9,-17.5 0,-10.9 -0.2,-11.9 -3.2,-18.3 -4.4,-9.3 -11.9,-16.9 -21.1,-21.4 -6.7,-3.400003 -8.3,-3.700003 -16.6,-3.900003 -5,-0.1 -10.1,0 -11.3,0.3 z" />
      <path
         inkscape:connector-curvature="0"
         style="fill:#44475a;fill-opacity:1;stroke:none;stroke-width:0.1"
         id="path12"
         d="m 188.925,200.95001 c -2.5,0.5 -5.5,1.1 -6.7,1.4 l -2.3,0.5 v 57.9 57.8 l 6,1.3 c 9.4,2 25.9,0.9 34.2,-2.3 12.6,-4.8 24.2,-14.4 31.4,-25.7 7.3,-11.6 10.2,-29.8 7,-44.3 -3.9,-17.6 -15.9,-33.3 -31,-40.7 -12.5,-6.2 -26.2,-8.3 -38.6,-5.9 z" />
    </g>
  </g>
</svg>
